<svg xmlns="http://www.w3.org/2000/svg" viewBox="0 0 1200 630">
  <defs>
    <radialGradient id="sky" cx="50%" cy="0%" r="80%">
      <stop offset="0%" stop-color="#17353a"/>
      <stop offset="46%" stop-color="#0d1415"/>
      <stop offset="100%" stop-color="#090c0d"/>
    </radialGradient>
    <linearGradient id="cloud" x1="160" x2="480" y1="244" y2="408" gradientUnits="userSpaceOnUse">
      <stop offset="0%" stop-color="#ffffff"/>
      <stop offset="100%" stop-color="#b7c5c0"/>
    </linearGradient>
  </defs>

  <rect width="1200" height="630" fill="url(#sky)"/>
  <circle cx="244" cy="250" r="78" fill="#67d6e6"/>
  <path fill="url(#cloud)" d="M212 394h256a82 82 0 0 0 0-164 120 120 0 0 0-232-28 99 99 0 0 0-24 192Z"/>
  <path fill="#8fa09a" opacity=".45" d="M212 394h256a82 82 0 0 0 70-39H198c-26 0-49-10-66-26a99 99 0 0 0 80 65Z"/>

  <text x="610" y="230" fill="#f3f7f4" font-family="Inter, ui-sans-serif, system-ui, -apple-system, Segoe UI, sans-serif" font-size="72" font-weight="750">
    Weather Outlook
  </text>
  <text x="612" y="306" fill="#b8c3bd" font-family="Inter, ui-sans-serif, system-ui, -apple-system, Segoe UI, sans-serif" font-size="34" font-weight="500">
    Practical daily forecasts without
  </text>
  <text x="612" y="352" fill="#b8c3bd" font-family="Inter, ui-sans-serif, system-ui, -apple-system, Segoe UI, sans-serif" font-size="34" font-weight="500">
    misleading weather icons.
  </text>
  <rect x="612" y="414" width="214" height="48" rx="24" fill="rgba(103,214,230,.14)"/>
  <text x="642" y="447" fill="#67d6e6" font-family="Inter, ui-sans-serif, system-ui, -apple-system, Segoe UI, sans-serif" font-size="22" font-weight="700">
    Rain impact first
  </text>
</svg>
